<svg width="36" height="19" viewBox="0 0 36 19" fill="none" xmlns="http://www.w3.org/2000/svg">
<path d="M7.00781 10.3945C5.07812 9.83984 3.67188 9.16016 2.78906 8.35547C1.91406 7.54297 1.47656 6.54297 1.47656 5.35547C1.47656 4.01172 2.01172 2.90234 3.08203 2.02734C4.16016 1.14453 5.55859 0.703125 7.27734 0.703125C8.44922 0.703125 9.49219 0.929687 10.4062 1.38281C11.3281 1.83594 12.0391 2.46094 12.5391 3.25781C13.0469 4.05469 13.3008 4.92578 13.3008 5.87109H11.0391C11.0391 4.83984 10.7109 4.03125 10.0547 3.44531C9.39844 2.85156 8.47266 2.55469 7.27734 2.55469C6.16797 2.55469 5.30078 2.80078 4.67578 3.29297C4.05859 3.77734 3.75 4.45312 3.75 5.32031C3.75 6.01562 4.04297 6.60547 4.62891 7.08984C5.22266 7.56641 6.22656 8.00391 7.64062 8.40234C9.0625 8.80078 10.1719 9.24219 10.9688 9.72656C11.7734 10.2031 12.3672 10.7617 12.75 11.4023C13.1406 12.043 13.3359 12.7969 13.3359 13.6641C13.3359 15.0469 12.7969 16.1562 11.7188 16.9922C10.6406 17.8203 9.19922 18.2344 7.39453 18.2344C6.22266 18.2344 5.12891 18.0117 4.11328 17.5664C3.09766 17.1133 2.3125 16.4961 1.75781 15.7148C1.21094 14.9336 0.9375 14.0469 0.9375 13.0547H3.19922C3.19922 14.0859 3.57812 14.9023 4.33594 15.5039C5.10156 16.0977 6.12109 16.3945 7.39453 16.3945C8.58203 16.3945 9.49219 16.1523 10.125 15.668C10.7578 15.1836 11.0742 14.5234 11.0742 13.6875C11.0742 12.8516 10.7812 12.207 10.1953 11.7539C9.60938 11.293 8.54688 10.8398 7.00781 10.3945ZM29.3555 10.0195C29.3555 11.6914 29.0742 13.1523 28.5117 14.4023C27.9492 15.6445 27.1523 16.5938 26.1211 17.25C25.0898 17.9062 23.8867 18.2344 22.5117 18.2344C21.168 18.2344 19.9766 17.9062 18.9375 17.25C17.8984 16.5859 17.0898 15.6445 16.5117 14.4258C15.9414 13.1992 15.6484 11.7812 15.6328 10.1719V8.94141C15.6328 7.30078 15.918 5.85156 16.4883 4.59375C17.0586 3.33594 17.8633 2.375 18.9023 1.71094C19.9492 1.03906 21.1445 0.703125 22.4883 0.703125C23.8555 0.703125 25.0586 1.03516 26.0977 1.69922C27.1445 2.35547 27.9492 3.3125 28.5117 4.57031C29.0742 5.82031 29.3555 7.27734 29.3555 8.94141V10.0195ZM27.1172 8.91797C27.1172 6.89453 26.7109 5.34375 25.8984 4.26562C25.0859 3.17969 23.9492 2.63672 22.4883 2.63672C21.0664 2.63672 19.9453 3.17969 19.125 4.26562C18.3125 5.34375 17.8945 6.84375 17.8711 8.76562V10.0195C17.8711 11.9805 18.2812 13.5234 19.1016 14.6484C19.9297 15.7656 21.0664 16.3242 22.5117 16.3242C23.9648 16.3242 25.0898 15.7969 25.8867 14.7422C26.6836 13.6797 27.0938 12.1602 27.1172 10.1836V8.91797Z" fill="white" fill-opacity="0.9"/>
<path d="M32.4375 16.8633C32.4375 16.4883 32.5469 16.1758 32.7656 15.9258C32.9922 15.6758 33.3281 15.5508 33.7734 15.5508C34.2188 15.5508 34.5547 15.6758 34.7812 15.9258C35.0156 16.1758 35.1328 16.4883 35.1328 16.8633C35.1328 17.2227 35.0156 17.5234 34.7812 17.7656C34.5547 18.0078 34.2188 18.1289 33.7734 18.1289C33.3281 18.1289 32.9922 18.0078 32.7656 17.7656C32.5469 17.5234 32.4375 17.2227 32.4375 16.8633Z" fill="#399DFF"/>
</svg>
